<svg version="1.1" id="Layer_1" xmlns="http://www.w3.org/2000/svg" xmlns:xlink="http://www.w3.org/1999/xlink" x="0px" y="0px" enable-background="new 0 0 736 1024" xml:space="preserve" viewBox="180.43 390.85 368.03 239.72">
<path fill="#000000" opacity="1.000000" stroke="none" d=" M193.293335,625.794739   C188.025452,628.019897 184.361649,624.966003 184.288818,618.555481   C184.056412,598.098755 184.055313,577.637878 183.644913,557.185059   C182.927582,521.433899 181.939194,485.688263 181.138657,449.938660   C180.926270,440.453796 180.999832,430.962769 180.910156,421.474884   C180.880280,418.311646 180.895752,415.137543 180.639008,411.988892   C179.933868,403.341858 181.082947,401.531830 189.364548,398.856964   C202.865753,394.496185 219.122101,402.358215 226.214096,416.651764   C238.002441,440.410522 236.784119,463.366516 222.652832,485.913727   C217.240662,494.549103 211.304871,502.734253 205.060486,510.739990   C203.844955,512.298401 202.397385,513.714783 201.889359,515.809875   C203.046249,517.759277 205.268005,517.841980 207.036057,518.454468   C237.486603,529.003845 256.808868,573.611450 227.304718,606.493042   C220.947830,613.577637 214.323532,620.343201 205.503174,624.483826   C201.637146,626.298706 197.808151,627.500061 193.293335,625.794739  M233.774414,567.723022   C233.367615,558.276489 229.489761,549.988159 224.751678,542.127014   C219.440323,533.314758 211.387756,527.792175 201.479279,525.369385   C194.816055,523.740112 191.332764,526.843872 191.238983,533.462769   C190.890274,558.074402 191.913132,582.665833 192.310654,607.266296   C192.337265,608.913330 192.943039,610.566833 192.862625,612.196716   C192.657806,616.348328 194.837845,617.493774 198.557571,617.568787   C200.524017,617.608521 202.079453,617.015442 203.737595,616.206055   C210.650330,612.831787 215.842789,607.349304 220.650940,601.660828   C228.648605,592.198975 234.257217,581.569336 233.774414,567.723022  M190.169312,493.509613   C190.584534,500.255676 189.609375,507.134491 191.461777,515.064697   C197.268051,507.851227 202.241974,501.850403 207.015549,495.694214   C212.442383,488.695465 216.673035,480.934998 220.455750,472.969421   C229.352142,454.235443 227.772385,435.877869 217.757538,418.073090   C213.759598,410.965393 207.287354,407.071533 199.372894,405.598694   C192.946472,404.402740 189.096237,407.623596 189.124527,414.189484   C189.237000,440.301117 188.747284,466.421448 190.169312,493.509613  z"/>
<path fill="#000000" opacity="1.000000" stroke="none" d=" M382.011108,391.861877   C396.656158,392.115845 410.812103,391.681519 424.953278,392.667542   C428.313232,392.901825 430.684906,393.712433 430.499268,397.370087   C430.301788,401.261566 427.378601,401.621246 424.305511,401.240753   C408.070007,399.230652 391.736023,399.808563 375.442810,399.457245   C367.517670,399.286346 365.981110,400.859528 366.322388,408.810913   C367.171417,428.594177 368.355408,448.363037 369.378326,468.139008   C369.545929,471.379456 370.984283,473.075195 374.395264,472.799652   C383.847504,472.035950 393.324951,471.506958 402.744019,470.452515   C406.032867,470.084381 408.628662,470.083038 409.134003,473.790192   C409.644684,477.536346 406.721619,478.799164 403.763977,478.947205   C395.448822,479.363342 387.175476,480.130829 378.913483,481.108490   C371.762207,481.954712 370.490723,483.856628 370.758759,491.199799   C371.171844,502.515839 371.016876,513.851379 371.322632,525.172729   C372.144806,555.616577 373.552734,586.034302 375.939972,616.399109   C376.208038,619.809387 375.050476,622.003113 371.645630,622.503052   C368.184845,623.011230 366.669708,620.704712 366.551636,617.766174   C366.399139,613.971985 367.090027,610.141174 366.903687,606.351379   C364.875885,565.109985 363.859222,523.835938 362.574280,482.568695   C361.735229,455.623138 360.011414,428.704987 358.655914,401.776001   C358.572571,400.120728 358.083313,398.480164 358.059601,396.828766   C358.003235,392.907013 361.221252,390.174347 365.578674,391.009674   C370.889709,392.027832 376.206696,391.552826 382.011108,391.861877  z"/>
<path fill="#000000" opacity="1.000000" stroke="none" d=" M452.489868,517.986938   C455.229401,515.525879 456.683868,516.563660 457.167145,519.380493   C458.064728,524.612122 459.257904,529.771484 459.039703,535.193726   C458.113403,558.208069 460.372345,581.103455 461.891052,604.025757   C462.110779,607.342529 462.200775,610.693359 461.987427,614.004944   C461.832397,616.410767 460.790344,618.666077 457.989838,619.050720   C455.432434,619.401978 454.035828,617.660522 453.035309,615.612366   C448.780945,606.903381 446.340820,597.514587 442.907684,588.498169   C436.208923,570.904846 428.832550,553.611450 419.740662,537.095642   C419.366180,536.415344 418.752289,535.866882 417.762024,534.664612   C416.329529,543.825195 418.115082,552.177246 418.487152,560.527344   C419.183472,576.153625 420.351685,591.758606 421.262817,607.375916   C421.428925,610.223145 421.583069,613.033569 422.905090,615.631775   C424.102295,617.984863 423.899597,620.098267 421.934631,621.989929   C420.649536,623.227051 419.194214,624.102173 417.455780,623.338318   C415.089600,622.298828 413.980377,620.135315 413.926575,617.713867   C413.786041,611.389099 413.454376,605.087769 413.051086,598.770203   C411.492340,574.352783 410.752991,549.882751 408.225647,525.527954   C407.983276,523.192444 408.658478,521.229553 410.763977,519.967224   C413.206787,518.502747 415.612488,518.936829 417.812073,520.433594   C420.351990,522.161926 421.947235,524.717224 423.401886,527.372131   C433.336121,545.503601 441.918549,564.262573 449.527466,583.476685   C450.259857,585.326050 451.115723,587.126526 452.366547,589.982422   C453.481262,581.566162 451.621063,574.364075 451.343170,567.105652   C450.720154,550.830261 449.397705,534.528687 452.489868,517.986938  z"/>
<path fill="#000000" opacity="1.000000" stroke="none" d=" M273.090027,626.118042   C272.094208,603.947144 271.386902,582.159607 270.412079,560.384033   C269.750488,545.605713 268.674377,530.846375 267.868225,516.073914   C267.623505,511.589691 269.981934,508.624176 274.276855,507.842590   C293.064514,504.423645 300.213287,511.055420 302.086365,528.312012   C303.418610,540.585815 299.494446,551.995239 293.207855,562.548462   C291.943207,564.671387 290.377838,566.650818 289.940735,569.432190   C305.554413,576.722351 308.470490,590.838135 309.331879,605.981628   C309.624481,611.125061 309.604340,616.271912 311.337799,621.238525   C312.238373,623.818787 311.293854,625.948792 308.689972,626.871094   C306.033112,627.812256 304.132843,626.497803 303.068146,624.077087   C301.263489,619.974182 301.488800,615.587341 301.686981,611.271851   C302.100830,602.260193 300.500946,593.717041 296.323425,585.684387   C294.301880,581.797241 291.427185,579.076843 286.999817,578.059082   C282.445831,577.012207 279.192444,579.064270 279.336304,583.702271   C279.733612,596.507812 279.931702,609.342163 281.677551,622.056580   C282.047699,624.752075 281.729156,626.675476 279.342896,627.950134   C276.958374,629.223755 274.847382,628.853210 273.090027,626.118042  M276.785187,540.914917   C277.387177,549.604736 277.989166,558.294556 278.593170,567.013489   C281.113861,566.810791 282.011536,565.283142 283.022736,564.042236   C290.209808,555.222900 293.592468,544.824768 294.476776,533.728760   C294.876923,528.707703 294.325989,523.406738 291.163544,518.923218   C288.723206,515.463501 285.254028,514.904480 281.428101,515.360107   C277.734222,515.799988 277.282104,518.899353 276.780121,521.611084   C275.651825,527.706665 276.351013,533.862488 276.785187,540.914917  z"/>
<path fill="#000000" opacity="1.000000" stroke="none" d=" M317.848755,585.967529   C316.158203,562.433289 314.527466,539.351807 312.852234,516.273560   C312.294525,508.590759 315.198120,505.804413 322.943512,507.201752   C337.049591,509.746582 346.975494,517.429688 351.477478,531.343201   C358.933380,554.385803 359.821045,577.480164 351.206451,600.418640   C347.438782,610.451111 341.596558,618.986267 331.768219,624.299683   C325.619019,627.624023 321.247009,625.677246 320.620758,618.773315   C319.643158,607.995483 318.794495,597.206055 317.848755,585.967529  M348.689880,576.135620   C349.331451,563.941040 348.412872,551.885986 345.645660,539.969910   C343.364105,530.144958 339.086029,521.770752 329.316437,517.490356   C323.160706,514.793396 320.963135,516.573364 321.444489,523.207642   C322.154236,532.989502 322.663055,542.785828 323.302368,552.572998   C324.310364,568.004395 325.101227,583.456909 326.521576,598.850830   C327.026428,604.322632 326.665436,610.093811 329.206909,615.569336   C333.660156,614.177673 336.494019,611.304382 338.612305,607.643860   C344.101471,598.158508 347.459015,587.960022 348.689880,576.135620  z"/>
<path fill="#000000" opacity="1.000000" stroke="none" d=" M468.095337,583.652588   C466.826813,563.412964 465.627899,543.639282 464.361694,523.869812   C464.034454,518.760559 466.966461,515.578735 472.079956,515.923950   C485.945160,516.859802 496.087189,524.379761 501.139984,536.499817   C512.283997,563.230835 508.690765,588.923889 492.330170,612.815369   C489.507324,616.937500 485.521393,619.627319 481.114441,621.728882   C475.991333,624.172119 472.298645,622.120361 471.636383,616.376526   C470.397614,605.632812 469.297607,594.873169 468.095337,583.652588  M475.939484,575.842102   C476.745209,585.951660 477.470062,596.068848 478.426300,606.164185   C478.612640,608.131348 478.356415,610.949463 481.055267,611.511230   C483.294342,611.977295 484.491821,609.866516 485.724243,608.310791   C490.664551,602.074463 493.679413,594.898376 495.953796,587.355164   C500.996338,570.631165 500.940063,554.250488 492.646942,538.440491   C490.032349,533.456116 486.303070,529.487183 481.332581,526.783081   C475.573273,523.649719 472.979095,525.147705 472.983673,531.639648   C472.993927,546.126892 474.755127,560.504395 475.939484,575.842102  z"/>
<path fill="#000000" opacity="1.000000" stroke="none" d=" M543.501709,568.652466   C553.304932,583.923462 547.842529,607.836365 532.906250,618.013428   C525.407410,623.122925 516.673828,623.188232 509.671539,617.808289   C507.701233,616.294434 505.276001,614.489807 507.079742,611.662048   C508.773071,609.007446 511.242340,609.873047 513.688110,611.158264   C521.619080,615.326294 526.709167,614.194763 532.764709,607.710083   C542.041382,597.776184 544.587158,575.158081 528.850159,564.287354   C525.015198,561.638245 521.135010,559.051636 517.355408,556.325745   C502.861816,545.872986 504.731628,523.898865 520.729065,516.363831   C526.435608,513.675964 533.613586,516.015259 536.153625,521.368713   C537.088257,523.338440 537.312683,525.214478 535.544434,526.844421   C533.727478,528.519287 531.947083,527.980408 530.114868,526.755188   C525.100891,523.402039 521.434326,524.162170 518.190552,529.155457   C514.631165,534.634338 515.000488,541.021301 519.149658,546.344360   C521.663635,549.569580 525.109741,551.623413 528.437134,553.827637   C534.315552,557.721802 539.748352,562.067627 543.501709,568.652466  z"/>
<path fill="#000000" opacity="1.000000" stroke="none" d=" M388.725952,566.005493   C388.222473,549.711853 387.759338,533.915833 387.183105,518.123901   C387.074890,515.158447 388.380920,513.608154 391.154388,513.572510   C394.392242,513.530823 396.248871,515.429504 395.839539,518.651550   C395.268127,523.149170 395.635254,527.602356 395.740387,532.083923   C396.310303,556.374329 396.611328,580.673523 397.466766,604.953308   C397.684631,611.136780 397.577667,617.557129 400.752228,623.442078   C402.291412,626.295471 400.014282,628.676941 397.521484,629.845032   C394.653625,631.188904 393.234070,628.885254 392.332428,626.645752   C390.631958,622.422302 390.244659,617.899597 390.038086,613.422363   C389.316925,597.792480 388.472870,582.162842 388.725952,566.005493  z"/>
<path fill="#000000" opacity="1.000000" stroke="none" d=" M261.227661,607.949951   C261.119385,613.622498 261.647705,618.755615 262.629211,623.828613   C263.267975,627.130127 262.262268,629.806396 259.062012,630.460144   C255.691422,631.148682 254.458282,628.142029 253.989578,625.495056   C253.531448,622.907898 253.800003,620.193604 253.731476,617.535583   C253.019028,589.901428 251.986664,562.284546 248.987137,534.782654   C248.554794,530.818481 249.034958,526.781189 247.835052,522.872864   C246.994583,520.135315 246.705917,517.267822 250.597534,516.805542   C254.407364,516.353027 256.040405,518.660950 256.155792,522.216431   C256.344757,528.038208 256.441315,533.842590 257.009003,539.668457   C259.205444,562.210510 260.758606,584.803955 261.227661,607.949951  z"/>
</svg>